<svg xmlns="http://www.w3.org/2000/svg" viewBox="0 0 198.6 70.9" enable-background="new 0 0 198.6 70.9"><style type="text/css">.st0{fill:url(#SVGID_1_);} .st1{fill:url(#SVGID_2_);} .st2{fill:#00253C;}</style><linearGradient id="SVGID_1_" x1="-62.257" x2="-38.014" y1="113.417" y2="46.706" gradientUnits="userSpaceOnUse" gradientTransform="matrix(.94 -.342 .342 .94 55.828 -56.921)"><stop offset="0" stop-color="#18527B"/><stop offset=".062" stop-color="#13486D"/><stop offset=".188" stop-color="#0A3957"/><stop offset=".326" stop-color="#052E48"/><stop offset=".486" stop-color="#01273F"/><stop offset=".713" stop-color="#00253C"/></linearGradient><path d="M36 70.9c-14.9 0-28.3-9.4-33.4-23.4C-.5 38.7-.1 29 3.9 20.4c4-8.6 11.1-15.1 20-18.3C27.8.7 31.9 0 36 0c14.9 0 28.3 9.4 33.3 23.4 3.2 8.9 2.8 18.5-1.2 27.1-4 8.6-11.1 15.1-20 18.3-3.8 1.4-7.9 2.1-12.1 2.1zm0-67.6c-3.7 0-7.4.7-11 1.9-8 3-14.4 8.9-18.1 16.7-3.6 7.8-4 16.5-1.1 24.6C10.4 59.1 22.6 67.6 36 67.6c3.7 0 7.4-.7 11-1.9 8.1-2.9 14.5-8.8 18.1-16.6 3.6-7.8 4-16.5 1.1-24.6C61.7 11.8 49.5 3.3 36 3.3z" class="st0"/><linearGradient id="SVGID_2_" x1="36.046" x2="36.046" y1="63.978" y2="5.977" gradientUnits="userSpaceOnUse"><stop offset="0" stop-color="#18527B"/><stop offset=".062" stop-color="#13486D"/><stop offset=".188" stop-color="#0A3957"/><stop offset=".326" stop-color="#052E48"/><stop offset=".486" stop-color="#01273F"/><stop offset=".713" stop-color="#00253C"/></linearGradient><path d="M63.7 25.4C58.2 10.1 41.3 2.2 26 7.8 10.7 13.3 2.8 30.2 8.4 45.5c2.9 7.9 8.7 13.8 15.9 16.9-4.1-6.1-2.6-14.9-2.6-14.9.2 1.3.5 2.6 1 3.9 3.5 9.8 14.3 14.9 24.1 11.5 1.2-.5 2.4-1 3.5-1.6 3.5-1.9 6.5-4.5 8.9-7.4 6.1-7.8 8.2-18.5 4.5-28.5zM42.9 14.5l2.3 7.1-6.5 4.6-2.5-5.7 6.7-6zm-7.6 6.7l2.5 5.5-5.1 3.6-2.6-4.6 5.2-4.5zm-5.6 5.1l2.6 4.5-4.6 3.2-2.6-3.7 4.6-4zm-.8 11.5l-.5 4-4.5-5.5.7-4.4 4.3 5.9zm-4.4-26.2c.1-.1.3 0 .4.2.1.1 0 .3-.2.4-.1.1-.3 0-.4-.2 0-.2 0-.3.2-.4zm-1.1 13.8c.1 0 .2.1.2.2s-.1.2-.2.2-.2-.1-.2-.2.1-.2.2-.2zm.9 6.5l-.7 4.3-4.7 3.4.3-1.2c.9-.2 1.8-.6 2.4-1.1.7-.6 1.1-1.2 1-1.9-.1-.5-.5-.9-1.1-1.2l2.8-2.3zM18 34.3c2.1-.4 4 .1 4.2 1.2.2 1.1-1.4 2.3-3.5 2.7-2.1.4-4-.1-4.2-1.2-.2-1.1 1.4-2.3 3.5-2.7zm.8 4.2l-.1.4-.3-.3c.2-.1.3-.1.4-.1zm-2.9-.1c.4.1.9.2 1.4.2.1 0 .3 0 .4 0l.8.9v.5l.3.3-2.6 1.8-2.1-2 1.8-1.7zm-4.2 3.8l2.2-1.9 2.1 2-2.3 1.6-2-1.7zm3.5 6.1c-.2.1-.3 0-.4-.2-.1-.2 0-.3.2-.4.2-.1.3 0 .4.2.1.1 0 .3-.2.4zm.8-2.4l-2-1.7 2.3-1.6 2.1 2-2.4 1.3zm2.7-1.5l-2.1-2 2.6-1.8 2.2 2.3-2.7 1.5zm.2-4.4l4.8-3.5 4.5 5.5-5.1 2.4-4.2-4.4zm9.3 8.7c-1.3.7-3.1-.1-3.9-1.7-.4-.9-.5-1.8-.3-2.6l3.4-1.6c.7.3 1.3.9 1.7 1.7.8 1.6.4 3.5-.9 4.2zM30.5 38l-2.4-3.4 4.6-3.1 2.4 4.1-4.6 2.4zm5.1-2.8l-2.4-4.1 5-3.4 2.2 4.9-4.8 2.6zm7 23.7c-.3.1-.7-.1-.9-.4-.1-.3.1-.7.4-.9.4-.1.7.1.9.4.2.4 0 .8-.4.9zm-1.3-26.7l-2.2-5 6.5-4.4 1.9 6.1-6.2 3.3zm6.5 2.2c-.2.1-.4 0-.4-.2-.1-.2 0-.4.2-.4.2-.1.4 0 .4.2.1.1 0 .3-.2.4zm.7 20.3c-.2.1-.4 0-.5-.2-.1-.2 0-.4.2-.5.2-.1.4 0 .5.2.1.2 0 .4-.2.5zm3.4-39.8c-.2.1-.4 0-.5-.2-.1-.2 0-.4.2-.5.2-.1.4 0 .5.2.1.2 0 .5-.2.5zm9.3 18.5c-.4.1-.8-.1-.9-.4-.1-.4.1-.8.4-.9.4-.1.8.1.9.4.1.4-.1.8-.4.9z" class="st1"/><path d="M81.3 25c0-1.3 1-2.3 2.3-2.3 1.3 0 2.3 1 2.3 2.3 0 1.3-1 2.3-2.3 2.3-1.2-.1-2.3-1.1-2.3-2.3zm.5 21.1V29.3h3.7v16.9h-3.7zM181 25c0-1.3 1-2.3 2.3-2.3 1.3 0 2.3 1 2.3 2.3 0 1.3-1 2.3-2.3 2.3-1.3-.1-2.3-1.1-2.3-2.3zm.4 21.1V29.3h3.7v16.9h-3.7zM98.8 28.9c-2.7 0-4.8 1.4-5.9 2.7l-.7-2.3h-2.9v16.9H93V34.4c.8-1.2 2.4-2.3 4.3-2.3 2.1 0 3.4.9 3.4 3.5v10.5h3.7V34.3c-.1-3.5-1.9-5.4-5.6-5.4zm18.9 0c-2.7 0-4.8 1.4-5.9 2.7l-.7-2.3h-2.9v16.9h3.7V34.4c.8-1.2 2.4-2.3 4.3-2.3 2.1 0 3.4.9 3.4 3.5v10.5h3.7V34.3c-.2-3.5-2-5.4-5.6-5.4zm34.7-3.4c.6 0 1.1.1 1.5.4l.8-2.7c-.7-.4-1.8-.7-2.9-.7-3.1 0-5.3 2.1-5.3 5.8v.9l-2.8.8v2.4h2.8V46h3.7V32.5h3.4v-3.2H150v-.9c0-1.9.9-2.9 2.4-2.9zm45.7 3.4c-2.4.1-4.4 1.5-5.5 2.7l-.7-2.3H189v16.9h3.7V34.4c.8-1.2 2.4-2.3 4.3-2.3.4 0 .8 0 1.2.1v-3.3zm-27.5 0c-2.1 0-4.1.6-5.8 1.7l1.7 2.4c1.1-.7 2.3-1 3.6-1 2.3 0 3.9 1.2 3.9 3.1v.4h-5.2c-.1 0-.2 0-.3 0-2.8 0-5.9 1.6-5.9 5.5 0 3.7 3.1 5.6 5.9 5.6 2.2 0 4.2-.8 5.4-2.2l.7 1.8h3V35c.1-4.6-3.2-6.1-7-6.1zM174 38v2.7c0 1.8-.8 2.4-1 2.6-.8.5-1.9.8-3 .8-2.1 0-3.6-1.2-3.6-3 0-1.5 1-2.6 2.5-2.9.1 0 .3-.1.5-.1.8-.1 2.4-.3 4.7-.3v.2zm-17.8-14.8h3.7v23h-3.7zm-22.3 5.7c-4.9 0-8 4-8 8.8 0 4.9 3.1 8.9 8 8.9 5 0 8-4 8-8.9 0-4.8-3-8.8-8-8.8zm0 14.4c-2.4 0-4.4-2.5-4.4-5.6 0-3.1 1.9-5.6 4.4-5.6 2.4 0 4.4 2.5 4.4 5.6-.1 3.1-2 5.6-4.4 5.6z" class="st2"/></svg>